<?xml version="1.0" encoding="UTF-8"?><svg id="uuid-a6a61027-0018-4584-a52d-381071c144d8" xmlns="http://www.w3.org/2000/svg" viewBox="0 0 256 256"><g><circle cx="128" cy="128" r="122" style="fill:#ababad;"/><path d="M128,12c30.9847,0,60.1149,12.0661,82.0244,33.9756,21.9095,21.9095,33.9756,51.0397,33.9756,82.0244s-12.0661,60.1149-33.9756,82.0244-51.0397,33.9756-82.0244,33.9756-60.1149-12.0661-82.0244-33.9756c-21.9095-21.9095-33.9756-51.0397-33.9756-82.0244s12.0661-60.1149,33.9756-82.0244C67.8851,24.0661,97.0153,12,128,12m0-12C57.3076,0,0,57.3076,0,128s57.3076,128,128,128,128-57.3076,128-128S198.6924,0,128,0h0Z" style="fill:#111113;"/></g><circle cx="128" cy="54" r="20" style="fill:#303033;"/><rect x="108" y="90" width="40" height="128" style="fill:#303033;"/><path d="M155.5867,90.0092h-57.9183c-2.6486-.6899-3.9424-2.1917-3.6199-3,.2748-.6886,1.8184-1.1139,3.6199-1h57.9183c1.3239,0,2.4133,.9028,2.4133,2s-1.0894,2-2.4133,2Z" style="fill:#303033;"/><path d="M157.5939,222.0557h-57.9183c-1.8114-.9211-3.8742-2.1587-3.6684-3.0092,.2173-.8983,2.868-.9626,3.6684-.9908,7.1115-.2507,47.5178,0,57.9183,0,1.3239,0,2.4133,.9028,2.4133,2s-1.0894,2-2.4133,2Z" style="fill:#303033;"/></svg>